<?xml version="1.0" encoding="UTF-8"?> <svg xmlns="http://www.w3.org/2000/svg" xmlns:xlink="http://www.w3.org/1999/xlink" width="900" zoomAndPan="magnify" viewBox="0 0 675 225" height="300" preserveAspectRatio="xMidYMid meet" version="1.0"><defs><g></g><clipPath id="33cf887a4f"><path d="M 280.070312 52.058594 L 384.320312 52.058594 L 384.320312 156.308594 L 280.070312 156.308594 Z M 280.070312 52.058594 " clip-rule="nonzero"></path></clipPath></defs><g fill="#000429" fill-opacity="1"><g transform="translate(2.675228, 158.093184)"><g><path d="M 33.90625 -45.265625 L 33.90625 0 L 8.203125 0 L 8.203125 -112.8125 L 33.90625 -112.8125 L 33.90625 -67.828125 L 70.296875 -67.828125 L 70.296875 -112.8125 L 96 -112.8125 L 96 0 L 70.296875 0 L 70.296875 -45.265625 Z M 33.90625 -45.265625 "></path></g></g></g><g fill="#000429" fill-opacity="1"><g transform="translate(94.005941, 158.093184)"><g><path d="M 8.203125 -112.8125 L 48.546875 -112.8125 C 59.390625 -112.8125 68.226562 -109.914062 75.0625 -104.125 C 81.90625 -98.34375 85.328125 -90.070312 85.328125 -79.3125 C 85.328125 -71.019531 83.253906 -64.066406 79.109375 -58.453125 C 74.960938 -52.847656 69.332031 -48.90625 62.21875 -46.625 L 101.0625 0 L 68.375 0 L 33.90625 -44.578125 L 33.90625 0 L 8.203125 0 Z M 33.90625 -62.765625 L 36.921875 -62.765625 C 39.296875 -62.765625 41.300781 -62.8125 42.9375 -62.90625 C 44.582031 -63 46.453125 -63.316406 48.546875 -63.859375 C 50.640625 -64.410156 52.320312 -65.1875 53.59375 -66.1875 C 54.875 -67.1875 55.96875 -68.644531 56.875 -70.5625 C 57.789062 -72.476562 58.25 -74.800781 58.25 -77.53125 C 58.25 -80.269531 57.789062 -82.597656 56.875 -84.515625 C 55.96875 -86.429688 54.875 -87.890625 53.59375 -88.890625 C 52.320312 -89.890625 50.640625 -90.660156 48.546875 -91.203125 C 46.453125 -91.753906 44.582031 -92.078125 42.9375 -92.171875 C 41.300781 -92.265625 39.296875 -92.3125 36.921875 -92.3125 L 33.90625 -92.3125 Z M 33.90625 -62.765625 "></path></g></g></g><g fill="#000429" fill-opacity="1"><g transform="translate(179.047139, 158.093184)"><g></g></g></g><g fill="#000429" fill-opacity="1"><g transform="translate(203.517754, 158.093184)"><g><path d="M 1.09375 -90.25 L 1.09375 -112.8125 L 80.40625 -112.8125 L 80.40625 -90.25 L 53.609375 -90.25 L 53.609375 0 L 27.890625 0 L 27.890625 -90.25 Z M 1.09375 -90.25 "></path></g></g></g><g clip-path="url(#33cf887a4f)"><path fill="#000429" d="M 332.246094 52.058594 C 303.429688 52.058594 280.070312 75.421875 280.070312 104.238281 C 280.070312 133.054688 303.429688 156.414062 332.246094 156.414062 C 361.066406 156.414062 384.425781 133.054688 384.425781 104.238281 C 384.425781 75.421875 361.066406 52.058594 332.246094 52.058594 Z M 352.570312 94.003906 C 352.867188 94.34375 353.304688 94.496094 353.894531 94.460938 C 355.34375 94.375 356.445312 93.921875 357.085938 93.152344 C 357.351562 92.832031 357.527344 92.464844 357.613281 92.066406 C 357.914062 92.777344 358.230469 93.183594 358.800781 93.183594 C 358.992188 93.183594 359.480469 93.183594 360.417969 92.15625 C 360.84375 93.21875 361.597656 94.398438 362.867188 94.464844 C 363.84375 94.519531 365.03125 94.507812 365.8125 94.488281 L 365.8125 96.71875 C 363.640625 96.925781 361.261719 96.988281 360.730469 96.722656 C 359.167969 95.941406 357.464844 96.972656 357.460938 96.980469 C 356.6875 97.359375 354.824219 98.039062 353.988281 97.710938 C 353.832031 97.648438 353.746094 97.566406 353.6875 97.417969 C 353.53125 97.007812 353.398438 96.601562 353.273438 96.21875 C 352.832031 94.882812 352.296875 93.253906 350.796875 93.253906 C 350.609375 93.253906 350.40625 93.28125 350.1875 93.335938 C 349.777344 93.4375 348.980469 93.519531 348.136719 93.605469 C 347.507812 93.671875 346.914062 93.734375 346.363281 93.808594 C 346.632812 93.640625 346.917969 93.429688 347.207031 93.171875 C 349.101562 91.492188 351.085938 90.363281 352.003906 90.425781 C 352.1875 90.4375 352.261719 90.496094 352.308594 90.550781 C 352.585938 90.871094 352.507812 91.398438 352.371094 92.105469 C 352.242188 92.742188 352.101562 93.46875 352.570312 94.003906 Z M 352.878906 79.226562 C 353.449219 79.265625 354 79.179688 354.472656 78.851562 C 355.097656 78.414062 355.433594 77.664062 355.503906 76.5625 C 355.644531 74.328125 355.957031 73.042969 356.1875 72.390625 C 356.367188 73.050781 356.546875 74.0625 356.648438 75.042969 C 356.691406 75.46875 357.027344 75.804688 357.449219 75.773438 C 357.449219 75.773438 357.515625 75.78125 357.542969 75.816406 C 357.59375 75.878906 357.640625 76.074219 357.597656 76.410156 C 357.417969 77.878906 356.175781 80.597656 354.886719 80.597656 C 354.304688 80.597656 353.773438 80.082031 353.261719 79.585938 C 353.132812 79.464844 353.007812 79.339844 352.878906 79.226562 Z M 329.144531 55.429688 C 329.460938 55.410156 329.773438 55.390625 330.089844 55.375 C 329.382812 55.796875 328.714844 56.226562 328.113281 56.652344 C 328.542969 56.183594 328.878906 55.785156 329.144531 55.429688 Z M 380.984375 100.207031 C 381.027344 100.71875 381.074219 101.226562 381.101562 101.742188 C 381.007812 101.695312 380.90625 101.648438 380.792969 101.609375 C 380.359375 101.453125 379.785156 101.289062 379.164062 101.113281 C 378.332031 100.878906 376.789062 100.4375 376.03125 100.042969 C 376.996094 99.902344 379.015625 99.960938 380.984375 100.207031 Z M 372.613281 108.902344 C 376.988281 108.277344 379.5 107.378906 380.074219 106.226562 C 380.207031 105.964844 380.503906 105.605469 380.792969 105.257812 C 380.914062 105.113281 381.03125 104.96875 381.148438 104.824219 C 380.832031 131.527344 359.023438 153.15625 332.246094 153.15625 C 305.984375 153.15625 284.496094 132.347656 283.382812 106.351562 C 284.058594 106.507812 284.8125 106.449219 285.59375 106.382812 C 286.773438 106.285156 288.105469 106.175781 289.6875 106.640625 C 292.726562 107.542969 292.820312 107.976562 293.046875 109.023438 C 293.1875 109.6875 293.382812 110.59375 294.121094 111.769531 C 294.769531 112.8125 295.734375 113.46875 296.902344 113.667969 C 297.175781 113.714844 297.453125 113.734375 297.726562 113.734375 C 299.847656 113.734375 301.929688 112.476562 302.558594 111.972656 C 303.105469 111.535156 303.074219 111.070312 303.007812 110.828125 C 302.796875 110.074219 301.96875 109.964844 300.710938 109.800781 C 300.265625 109.746094 299.746094 109.675781 299.324219 109.570312 C 299.695312 109.21875 300.128906 108.753906 300.128906 108.097656 C 300.128906 107.210938 299.480469 106.792969 298.960938 106.457031 C 298.535156 106.183594 298.050781 105.871094 297.652344 105.234375 C 297.363281 104.769531 297.414062 104.664062 297.628906 104.21875 C 297.855469 103.753906 298.195312 103.050781 297.957031 101.96875 C 297.820312 101.355469 297.441406 101.121094 297.226562 101.03125 C 296.542969 100.753906 295.871094 101.1875 295.097656 101.691406 C 294.546875 102.050781 293.714844 102.589844 293.3125 102.46875 C 293.085938 102.398438 292.910156 102.042969 292.824219 101.835938 C 292.574219 101.222656 292.71875 100.886719 292.851562 100.6875 C 293.628906 99.527344 296.675781 99.050781 298.136719 99.050781 C 298.441406 99.050781 299.105469 99.601562 299.585938 100.003906 C 300.570312 100.820312 301.796875 101.839844 303.121094 101.34375 C 304.15625 100.953125 304.917969 99.347656 306.28125 96.304688 C 307.3125 94.003906 308.484375 91.394531 309.671875 90.203125 C 311.183594 88.695312 312.742188 88.800781 314.25 88.90625 C 314.980469 88.953125 315.671875 89.003906 316.316406 88.859375 C 316.863281 88.738281 317.53125 88.519531 317.84375 87.910156 C 318.21875 87.1875 317.894531 86.433594 317.410156 85.292969 C 317.324219 85.09375 317.234375 84.878906 317.136719 84.648438 C 317.492188 84.691406 317.894531 84.671875 318.332031 84.542969 C 318.398438 84.523438 318.433594 84.519531 318.4375 84.515625 C 318.554688 84.613281 318.734375 85.070312 318.839844 85.347656 C 319.230469 86.355469 319.867188 88.046875 322.066406 87.898438 C 322.910156 87.84375 323.519531 87.550781 323.878906 87.035156 C 324.535156 86.082031 324.140625 84.765625 323.636719 83.097656 C 323.3125 82.027344 322.949219 80.816406 322.824219 79.566406 C 322.671875 78.0625 322.210938 77.101562 321.410156 76.621094 C 320.347656 75.984375 319.15625 76.480469 318.441406 76.773438 C 318.4375 76.773438 318.4375 76.777344 318.433594 76.777344 C 318.3125 76.515625 318.160156 76.117188 318.042969 75.796875 C 317.621094 74.660156 317.140625 73.367188 316.242188 72.6875 C 315.914062 72.4375 315.523438 72.34375 315.140625 72.425781 C 314.265625 72.613281 313.710938 73.621094 313.066406 74.792969 C 312.730469 75.398438 312.035156 76.664062 311.703125 76.730469 C 310.109375 76.199219 309.164062 77.671875 308.679688 78.503906 C 308.4375 78.183594 308.257812 77.773438 308.148438 76.441406 C 308.070312 75.527344 311.324219 73.386719 313.074219 72.238281 C 314.996094 70.976562 316.65625 69.882812 317.230469 68.925781 C 317.464844 68.535156 317.898438 67.8125 317.410156 67.234375 C 316.929688 66.667969 316.257812 66.929688 315.480469 67.234375 C 314.921875 67.453125 314.097656 67.777344 313.496094 67.722656 C 313.59375 67.402344 313.921875 66.875 314.042969 66.679688 C 314.265625 66.320312 314.640625 65.714844 314.101562 65.234375 C 313.5625 64.75 312.980469 65.203125 312.703125 65.421875 C 311.390625 66.453125 308.050781 67.691406 306.941406 67.691406 C 306.746094 67.691406 306.617188 67.6875 306.535156 67.679688 C 306.5 67.476562 306.472656 67.097656 306.449219 66.730469 C 306.429688 66.488281 306.410156 66.210938 306.386719 65.894531 C 306.328125 65.195312 306.007812 64.601562 305.464844 64.175781 C 305.257812 64.015625 305.027344 63.886719 304.78125 63.78125 C 306.378906 62.695312 308.050781 61.707031 309.773438 60.8125 C 310.386719 61.414062 311.941406 62.3125 316.363281 63.242188 C 317.558594 63.492188 318.371094 63.867188 319.027344 64.171875 C 319.625 64.449219 320.15625 64.660156 320.652344 64.660156 C 321.386719 64.660156 322.046875 64.195312 322.742188 62.808594 C 323.171875 61.949219 324.351562 60.632812 325.582031 59.332031 C 325.492188 59.589844 325.464844 59.839844 325.519531 60.078125 C 325.75 61.121094 326.21875 62.039062 326.59375 62.773438 C 326.738281 63.058594 326.921875 63.421875 327.011719 63.660156 C 326.914062 63.726562 326.789062 63.804688 326.683594 63.871094 C 326.007812 64.292969 325.082031 64.871094 324.914062 65.921875 C 324.808594 66.605469 325.0625 67.320312 325.679688 68.054688 C 326.742188 69.316406 326.453125 70.234375 326.085938 71.398438 C 325.894531 72.007812 325.695312 72.636719 325.695312 73.335938 C 325.695312 73.679688 325.644531 74.234375 325.589844 74.820312 C 325.332031 77.621094 325.238281 79.664062 326.378906 80.417969 C 326.578125 80.550781 326.851562 80.664062 327.207031 80.664062 C 327.503906 80.664062 327.855469 80.585938 328.265625 80.363281 C 329.589844 79.65625 329.988281 78.910156 330.445312 78.046875 C 331.007812 76.980469 331.78125 75.519531 334.871094 72.847656 C 340.367188 68.105469 344.542969 59.167969 344.734375 56.941406 C 352.453125 58.980469 359.433594 62.859375 365.167969 68.085938 C 364.484375 69.289062 363.585938 70.378906 362.859375 70.246094 C 362.589844 70.199219 362.582031 70.195312 362.546875 69.480469 C 362.5 68.4375 362.417969 66.691406 359.542969 66.128906 C 355.441406 65.320312 349.617188 67.179688 348.253906 70.785156 C 347.3125 73.269531 347.222656 75.699219 348.011719 77.128906 C 348.421875 77.867188 349.050781 78.339844 349.835938 78.496094 C 350.164062 78.5625 350.519531 78.667969 350.898438 78.78125 C 350.667969 78.917969 350.460938 79.128906 350.28125 79.417969 C 348.632812 82.054688 346.671875 84.109375 346.082031 84.117188 C 345.054688 84.117188 344.238281 85.027344 343.890625 86.550781 C 343.753906 87.15625 343.667969 87.871094 343.847656 88.394531 C 343.835938 88.402344 343.828125 88.414062 343.820312 88.421875 C 343.191406 88.101562 342.199219 87.730469 341.398438 88.042969 C 340.898438 88.234375 340.542969 88.660156 340.398438 89.234375 C 340.039062 90.664062 340.367188 92.617188 341.128906 93.589844 C 341.621094 94.222656 342.179688 94.355469 342.558594 94.355469 C 342.777344 94.355469 342.996094 94.378906 343.21875 94.402344 C 343.300781 94.410156 343.382812 94.421875 343.472656 94.429688 C 342.800781 94.683594 342.3125 95.019531 342.046875 95.480469 L 341.695312 96.105469 C 341.0625 97.230469 340.410156 98.398438 339.703125 98.964844 L 339.550781 99.085938 C 338.578125 99.859375 337.101562 101.03125 336.480469 103.722656 C 335.816406 106.601562 337.265625 112.796875 340.996094 113.710938 C 343.425781 114.304688 346.40625 114.046875 348.582031 113.855469 C 349.320312 113.792969 349.957031 113.738281 350.394531 113.734375 C 351.261719 113.734375 351.695312 114.179688 351.921875 116.691406 C 352.039062 118.003906 352.585938 118.820312 353.070312 119.542969 C 353.480469 120.15625 353.804688 120.644531 353.878906 121.390625 C 353.957031 122.191406 353.890625 122.742188 353.808594 123.4375 C 353.703125 124.324219 353.570312 125.429688 353.679688 127.417969 C 353.726562 128.230469 353.707031 129.109375 353.683594 130.046875 C 353.617188 133.117188 353.539062 136.597656 356.128906 137.707031 C 356.515625 137.871094 356.84375 138.039062 357.136719 138.191406 C 357.882812 138.578125 358.484375 138.820312 359.078125 138.820312 C 360.371094 138.820312 361.605469 137.667969 364.144531 134.320312 C 368.679688 128.347656 369.609375 125.449219 370.355469 122.28125 C 371.125 119.019531 373.472656 116.082031 375.324219 114.734375 C 377.167969 113.394531 378.484375 111.292969 378.140625 110.238281 C 378.003906 109.816406 377.632812 109.542969 377.195312 109.542969 C 377.105469 109.542969 376.929688 109.5625 376.679688 109.589844 C 375.382812 109.742188 371.429688 110.210938 370.304688 107.753906 C 370.21875 107.570312 370.132812 107.386719 370.042969 107.203125 C 370.851562 108.320312 371.6875 109.03125 372.613281 108.902344 Z M 372.613281 108.902344 " fill-opacity="1" fill-rule="nonzero"></path></g><path fill="#000429" d="M 327.523438 117.59375 C 325.398438 116.96875 323.222656 115.386719 321.300781 113.992188 C 320.371094 113.316406 319.492188 112.679688 318.707031 112.214844 C 316.5 110.914062 312.957031 110.296875 312.125 110.164062 C 311.523438 109.785156 310.960938 109.367188 310.410156 108.960938 C 309.179688 108.050781 308.207031 107.332031 307.238281 107.332031 C 306.777344 107.332031 306.128906 107.5 305.65625 108.296875 C 304.738281 109.835938 303.765625 111.363281 301.957031 113.09375 C 301.554688 113.476562 300.984375 113.851562 300.433594 114.210938 C 299.191406 115.023438 297.902344 115.859375 297.757812 117.246094 C 297.664062 118.171875 298.109375 119.113281 299.125 120.128906 C 300.246094 121.246094 301.566406 121.957031 302.847656 122.644531 C 305.34375 123.984375 307.5 125.144531 308.09375 129.058594 C 309.203125 136.367188 313.90625 143.371094 315.875 146.046875 C 317.316406 148 318.855469 149.078125 320.207031 149.078125 C 320.78125 149.078125 321.300781 148.878906 321.671875 148.511719 C 322.035156 148.152344 322.238281 147.660156 322.238281 147.125 C 322.238281 146.734375 322.277344 146.320312 322.316406 145.882812 C 322.40625 144.847656 322.515625 143.675781 322.226562 142.089844 C 321.835938 139.953125 321.855469 138.933594 322.296875 138.195312 C 322.375 138.070312 322.546875 138.019531 322.894531 137.941406 C 323.285156 137.855469 323.820312 137.742188 324.117188 137.230469 C 324.324219 136.878906 324.347656 136.457031 324.1875 135.9375 C 324.089844 135.625 323.972656 135.332031 323.855469 135.046875 C 323.480469 134.117188 323.289062 133.652344 324.027344 132.792969 C 325.421875 131.167969 327.679688 127.492188 328.101562 124.761719 C 328.203125 124.082031 328.542969 123.335938 328.871094 122.609375 C 329.421875 121.398438 329.988281 120.148438 329.480469 119.042969 C 329.171875 118.363281 328.53125 117.890625 327.523438 117.59375 Z M 327.523438 117.59375 " fill-opacity="1" fill-rule="nonzero"></path><path fill="#000429" d="M 323.3125 64.785156 C 323.097656 64.402344 322.625 64.257812 322.234375 64.453125 C 322.152344 64.492188 320.21875 65.484375 320.21875 67.527344 C 320.21875 67.9375 319.625 68.675781 319.195312 69.214844 C 318.433594 70.164062 317.285156 71.597656 318.554688 72.652344 C 318.863281 72.910156 319.289062 73.046875 319.785156 73.046875 C 320.988281 73.046875 322.695312 72.21875 323.628906 70.632812 C 324.316406 69.464844 324.820312 67.5 323.3125 64.785156 Z M 323.3125 64.785156 " fill-opacity="1" fill-rule="nonzero"></path><path fill="#000429" d="M 338.8125 79.015625 C 342.011719 77.417969 341.628906 72.378906 341.609375 72.164062 C 341.589844 71.925781 341.464844 71.710938 341.273438 71.570312 C 341.078125 71.429688 340.832031 71.382812 340.601562 71.441406 C 339.886719 71.617188 336.277344 72.589844 335.371094 74.398438 C 334.839844 75.457031 334.714844 77.230469 335.417969 78.371094 C 335.839844 79.050781 336.5 79.421875 337.285156 79.421875 C 337.753906 79.421875 338.269531 79.285156 338.8125 79.015625 Z M 338.8125 79.015625 " fill-opacity="1" fill-rule="nonzero"></path><g fill="#000429" fill-opacity="1"><g transform="translate(381.286829, 158.652795)"><g><path d="M 8.203125 -112.828125 L 40.890625 -112.828125 C 56.578125 -112.828125 69.976562 -107.46875 81.09375 -96.75 C 92.21875 -86.039062 97.78125 -72.617188 97.78125 -56.484375 C 97.78125 -40.253906 92.238281 -26.78125 81.15625 -16.0625 C 70.082031 -5.351562 56.660156 0 40.890625 0 L 8.203125 0 Z M 33.921875 -22.984375 L 37.890625 -22.984375 C 47.273438 -22.984375 54.953125 -26.148438 60.921875 -32.484375 C 66.898438 -38.816406 69.9375 -46.769531 70.03125 -56.34375 C 70.03125 -65.914062 67.039062 -73.894531 61.0625 -80.28125 C 55.09375 -86.664062 47.367188 -89.859375 37.890625 -89.859375 L 33.921875 -89.859375 Z M 33.921875 -22.984375 "></path></g></g></g><g fill="#000429" fill-opacity="1"><g transform="translate(469.357838, 158.652795)"><g><path d="M 65.515625 -112.828125 L 111.046875 0 L 83.421875 0 L 75.078125 -22.5625 L 32.140625 -22.5625 L 23.796875 0 L -3.828125 0 L 41.71875 -112.828125 Z M 66.328125 -45.125 L 53.75 -77.953125 L 53.46875 -77.953125 L 40.890625 -45.125 Z M 66.328125 -45.125 "></path></g></g></g><g fill="#000429" fill-opacity="1"><g transform="translate(563.719699, 158.652795)"><g><path d="M -4.109375 -112.828125 L 26.8125 -112.828125 L 50.328125 -76.71875 L 73.859375 -112.828125 L 104.765625 -112.828125 L 63.1875 -50.609375 L 63.1875 0 L 37.46875 0 L 37.46875 -50.609375 Z M -4.109375 -112.828125 "></path></g></g></g></svg> 